# Blender v2.93.5 OBJ File: 'pistas_1.blend'
# www.blender.org
mtllib reto.mtl
o Plane
v 9.432605 0.000000 2.504827
v 15.431224 0.000000 2.504827
v 9.432605 0.000000 -1.150883
v 15.431224 0.000000 -1.150883
v 9.432605 0.000000 2.171218
v 9.432605 0.000000 -0.817274
v 15.431224 0.000000 -0.817274
v 15.431224 0.000000 2.171218
v 9.432605 0.168980 2.484187
v 15.431224 0.168980 2.484187
v 15.431224 0.168980 -1.130243
v 9.432605 0.168980 -1.130243
v 15.431224 0.168980 -0.853295
v 9.432605 0.168980 -0.853295
v 9.432605 0.168980 2.207239
v 15.431224 0.168980 2.207239
vt 0.731453 0.235319
vt 0.731453 0.179923
vt 0.759512 0.183350
vt 0.759512 0.229338
vt 0.001962 0.998038
vt 0.001962 0.001962
vt 0.498204 0.001962
vt 0.498204 0.998038
vt 0.731453 0.116678
vt 0.731453 0.061282
vt 0.759512 0.067264
vt 0.759512 0.113251
vt 0.548116 0.001962
vt 0.548115 0.998038
vt 0.502128 0.998038
vt 0.502128 0.001962
vt 0.598027 0.001962
vt 0.598027 0.998038
vt 0.552040 0.998038
vt 0.552040 0.001962
vt 0.699288 0.998038
vt 0.699288 0.001962
vt 0.727529 0.001962
vt 0.727529 0.998038
vt 0.731453 0.057358
vt 0.731453 0.001962
vt 0.759512 0.005389
vt 0.759512 0.051377
vt 0.731453 0.175999
vt 0.731453 0.120603
vt 0.759512 0.126584
vt 0.759512 0.172572
vt 0.601952 0.998038
vt 0.601952 0.001962
vt 0.630614 0.001962
vt 0.630613 0.998038
vt 0.634538 0.998038
vt 0.634538 0.001962
vt 0.663200 0.001962
vt 0.663199 0.998038
vt 0.667124 0.998038
vt 0.667124 0.001962
vt 0.695364 0.001962
vt 0.695364 0.998038
vn -1.0000 0.0000 0.0000
vn 0.0000 1.0000 0.0000
vn 0.0000 0.1212 0.9926
vn 1.0000 0.0000 0.0000
vn 0.0000 0.2085 -0.9780
vn 0.0000 0.2085 0.9780
vn 0.0000 0.1212 -0.9926
usemtl Material.001
s off
f 5/1/1 1/2/1 9/3/1 15/4/1
f 7/5/2 6/6/2 5/7/2 8/8/2
f 3/9/1 6/10/1 14/11/1 12/12/1
f 14/13/2 13/14/2 11/15/2 12/16/2
f 9/17/2 10/18/2 16/19/2 15/20/2
f 1/21/3 2/22/3 10/23/3 9/24/3
f 7/25/4 4/26/4 11/27/4 13/28/4
f 2/29/4 8/30/4 16/31/4 10/32/4
f 8/33/5 5/34/5 15/35/5 16/36/5
f 6/37/6 7/38/6 13/39/6 14/40/6
f 4/41/7 3/42/7 12/43/7 11/44/7
